<?xml version="1.0" encoding="utf-8"?>
<!-- Generator: Adobe Illustrator 18.1.1, SVG Export Plug-In . SVG Version: 6.00 Build 0)  -->
<!DOCTYPE svg PUBLIC "-//W3C//DTD SVG 1.1//EN" "http://www.w3.org/Graphics/SVG/1.1/DTD/svg11.dtd">
<svg version="1.1" id="Ebene_1" xmlns="http://www.w3.org/2000/svg" xmlns:xlink="http://www.w3.org/1999/xlink" x="0px" y="0px"
	 width="520px" height="221px" viewBox="0 0 520 221" enable-background="new 0 0 520 221" xml:space="preserve">
<rect fill="#FFFFFF" width="520" height="221"/>
<g>
	<g opacity="0.5">
		<g>
			<rect x="399" y="27" fill="#FD9838" width="2" height="9"/>
		</g>
		<g>
			<path fill="#FD9838" d="M416,2c1.1,0,2,0.9,2,2v17c0,1.1-0.9,2-2,2h-12l-4,4l-4-4h-12c-1.1,0-2-0.9-2-2V4c0-1.1,0.9-2,2-2H416
				 M416,0h-32c-2.2,0-4,1.8-4,4v17c0,2.2,1.8,4,4,4h11.2l3.4,3.4l1.4,1.4l1.4-1.4l3.4-3.4H416c2.2,0,4-1.8,4-4V4
				C420,1.8,418.2,0,416,0L416,0z"/>
		</g>
	</g>
	<g>
		<path fill="#FD9838" d="M400,28.4l-4.4-4.4H384c-1.7,0-3-1.3-3-3V4c0-1.7,1.3-3,3-3h32c1.7,0,3,1.3,3,3v17c0,1.7-1.3,3-3,3h-11.6
			L400,28.4z M384,3c-0.6,0-1,0.4-1,1v17c0,0.6,0.4,1,1,1h12.4l3.6,3.6l3.6-3.6H416c0.6,0,1-0.4,1-1V4c0-0.6-0.4-1-1-1H384z"/>
	</g>
	<g>
		<rect x="387" y="7" fill="#FD9838" width="26" height="2"/>
	</g>
	<g>
		<rect x="387" y="12" fill="#FD9838" width="12" height="2"/>
	</g>
	<g>
		<rect x="401" y="12" fill="#FD9838" width="6" height="2"/>
	</g>
	<g>
		<rect x="401" y="17" fill="#FD9838" width="4" height="2"/>
	</g>
	<g>
		<rect x="387" y="17" fill="#FD9838" width="12" height="2"/>
	</g>
	<g>
		<rect x="39" y="187" fill="#50B8E7" width="2" height="4"/>
	</g>
	<g>
		<rect x="59" y="187" fill="#50B8E7" width="2" height="4"/>
	</g>
	<g>
		<rect x="79" y="187" fill="#50B8E7" width="2" height="4"/>
	</g>
	<g>
		<rect x="99" y="187" fill="#50B8E7" width="2" height="4"/>
	</g>
	<g>
		<rect x="119" y="187" fill="#50B8E7" width="2" height="4"/>
	</g>
	<g>
		<rect x="139" y="187" fill="#50B8E7" width="2" height="4"/>
	</g>
	<g>
		<rect x="159" y="187" fill="#50B8E7" width="2" height="4"/>
	</g>
	<g>
		<rect x="179" y="187" fill="#50B8E7" width="2" height="4"/>
	</g>
	<g>
		<rect x="199" y="187" fill="#50B8E7" width="2" height="4"/>
	</g>
	<g>
		<rect x="219" y="187" fill="#50B8E7" width="2" height="4"/>
	</g>
	<g>
		<rect x="239" y="187" fill="#50B8E7" width="2" height="4"/>
	</g>
	<g>
		<rect x="259" y="187" fill="#50B8E7" width="2" height="4"/>
	</g>
	<g>
		<rect x="279" y="187" fill="#50B8E7" width="2" height="4"/>
	</g>
	<g>
		<rect x="299" y="187" fill="#50B8E7" width="2" height="4"/>
	</g>
	<g>
		<rect x="319" y="187" fill="#50B8E7" width="2" height="4"/>
	</g>
	<g>
		<rect x="339" y="187" fill="#50B8E7" width="2" height="4"/>
	</g>
	<g>
		<rect x="359" y="187" fill="#50B8E7" width="2" height="4"/>
	</g>
	<g>
		<rect x="379" y="187" fill="#50B8E7" width="2" height="4"/>
	</g>
	<g>
		<rect x="399" y="187" fill="#50B8E7" width="2" height="4"/>
	</g>
	<g>
		<rect x="419" y="187" fill="#50B8E7" width="2" height="4"/>
	</g>
	<g>
		<rect x="439" y="187" fill="#50B8E7" width="2" height="4"/>
	</g>
	<g>
		<rect x="459" y="187" fill="#50B8E7" width="2" height="4"/>
	</g>
	<g>
		<rect x="479" y="187" fill="#50B8E7" width="2" height="4"/>
	</g>
	<g opacity="0.25">
		<circle fill="#50B8E7" cx="40" cy="145" r="5"/>
	</g>
	<g opacity="0.25">
		<circle fill="#50B8E7" cx="60" cy="119" r="5"/>
	</g>
	<g opacity="0.25">
		<circle fill="#50B8E7" cx="80" cy="127" r="5"/>
	</g>
	<g opacity="0.25">
		<circle fill="#50B8E7" cx="100" cy="106" r="5"/>
	</g>
	<g opacity="0.25">
		<circle fill="#50B8E7" cx="120" cy="125" r="5"/>
	</g>
	<g opacity="0.25">
		<circle fill="#50B8E7" cx="140" cy="96" r="5"/>
	</g>
	<g opacity="0.25">
		<circle fill="#50B8E7" cx="160" cy="104" r="5"/>
	</g>
	<g opacity="0.25">
		<circle fill="#50B8E7" cx="180" cy="96" r="5"/>
	</g>
	<g opacity="0.25">
		<circle fill="#50B8E7" cx="200" cy="96" r="5"/>
	</g>
	<g opacity="0.25">
		<circle fill="#50B8E7" cx="220" cy="81" r="5"/>
	</g>
	<g opacity="0.25">
		<circle fill="#50B8E7" cx="240" cy="102" r="5"/>
	</g>
	<g opacity="0.25">
		<circle fill="#50B8E7" cx="260" cy="83" r="5"/>
	</g>
	<g opacity="0.25">
		<circle fill="#50B8E7" cx="280" cy="75" r="5"/>
	</g>
	<g opacity="0.25">
		<circle fill="#50B8E7" cx="300" cy="87" r="5"/>
	</g>
	<g opacity="0.25">
		<circle fill="#50B8E7" cx="320" cy="73" r="5"/>
	</g>
	<g opacity="0.25">
		<circle fill="#50B8E7" cx="340" cy="77" r="5"/>
	</g>
	<g opacity="0.25">
		<circle fill="#50B8E7" cx="360" cy="59" r="5"/>
	</g>
	<g opacity="0.25">
		<circle fill="#50B8E7" cx="380" cy="78" r="5"/>
	</g>
	<g opacity="0.25">
		<circle fill="#FD9838" cx="400" cy="38" r="7"/>
	</g>
	<g opacity="0.5">
		<circle fill="#FD9838" cx="400" cy="38" r="5"/>
	</g>
	<g opacity="0.25">
		<circle fill="#50B8E7" cx="420" cy="63" r="5"/>
	</g>
	<g opacity="0.25">
		<circle fill="#50B8E7" cx="440" cy="41" r="5"/>
	</g>
	<g opacity="0.25">
		<circle fill="#50B8E7" cx="460" cy="53" r="5"/>
	</g>
	<g opacity="0.25">
		<circle fill="#50B8E7" cx="480" cy="24" r="5"/>
	</g>
	<g>
		<rect y="187" fill="#50B8E7" width="520" height="2"/>
	</g>
	<g>
		<circle fill="#50B8E7" cx="60" cy="119" r="3"/>
	</g>
	<g>
		<circle fill="#50B8E7" cx="40" cy="145" r="3"/>
	</g>
	<g>
		<circle fill="#50B8E7" cx="80" cy="127" r="3"/>
	</g>
	<g>
		<circle fill="#50B8E7" cx="100" cy="106" r="3"/>
	</g>
	<g>
		<circle fill="#50B8E7" cx="120" cy="125" r="3"/>
	</g>
	<g>
		<circle fill="#50B8E7" cx="140" cy="96" r="3"/>
	</g>
	<g>
		<circle fill="#50B8E7" cx="160" cy="104" r="3"/>
	</g>
	<g>
		<circle fill="#50B8E7" cx="200" cy="96" r="3"/>
	</g>
	<g>
		<circle fill="#50B8E7" cx="180" cy="96" r="3"/>
	</g>
	<g>
		<circle fill="#50B8E7" cx="220" cy="81" r="3"/>
	</g>
	<g>
		<circle fill="#50B8E7" cx="240" cy="102" r="3"/>
	</g>
	<g>
		<circle fill="#50B8E7" cx="260" cy="83" r="3"/>
	</g>
	<g>
		<circle fill="#50B8E7" cx="280" cy="75" r="3"/>
	</g>
	<g>
		<circle fill="#50B8E7" cx="300" cy="87" r="3"/>
	</g>
	<g>
		<circle fill="#50B8E7" cx="320" cy="73" r="3"/>
	</g>
	<g>
		<circle fill="#50B8E7" cx="360" cy="59" r="3"/>
	</g>
	<g>
		<circle fill="#50B8E7" cx="380" cy="78" r="3"/>
	</g>
	<g>
		<circle fill="#FD9838" cx="400" cy="38" r="3"/>
	</g>
	<g>
		<circle fill="#50B8E7" cx="420" cy="63" r="3"/>
	</g>
	<g>
		<circle fill="#50B8E7" cx="440" cy="41" r="3"/>
	</g>
	<g>
		<circle fill="#50B8E7" cx="460" cy="53" r="3"/>
	</g>
	<g>
		<circle fill="#50B8E7" cx="340" cy="77" r="3"/>
	</g>
	<g opacity="0.5">
		
			<rect x="438.3" y="46" transform="matrix(0.8575 0.5145 -0.5145 0.8575 88.3095 -224.8253)" fill="#50B8E7" width="23.3" height="2"/>
	</g>
	<g opacity="0.5">
		
			<rect x="429" y="37.1" transform="matrix(0.74 0.6726 -0.6726 0.74 146.7832 -275.7076)" fill="#50B8E7" width="2" height="29.7"/>
	</g>
	<g opacity="0.5">
		
			<rect x="399.7" y="52.2" transform="matrix(0.6247 0.7809 -0.7809 0.6247 196.2702 -301.8846)" fill="#50B8E7" width="25" height="2"/>
	</g>
	<g opacity="0.5">
		
			<rect x="387.4" y="42.4" transform="matrix(0.8944 0.4472 -0.4472 0.8944 68.3642 -167.2449)" fill="#50B8E7" width="2" height="37.6"/>
	</g>
	<g opacity="0.5">
		
			<rect x="356.2" y="67.5" transform="matrix(0.725 0.6887 -0.6887 0.725 148.9296 -235.9998)" fill="#50B8E7" width="27.6" height="2"/>
	</g>
	<g opacity="0.5">
		
			<rect x="349" y="54.5" transform="matrix(0.669 0.7432 -0.7432 0.669 166.3842 -237.6292)" fill="#50B8E7" width="2" height="26.9"/>
	</g>
	<g opacity="0.5">
		
			<rect x="319.8" y="74" transform="matrix(0.9806 0.1961 -0.1961 0.9806 21.1171 -63.2619)" fill="#50B8E7" width="20.4" height="2"/>
	</g>
	<g opacity="0.5">
		
			<rect x="309" y="67.8" transform="matrix(0.5733 0.8194 -0.8194 0.5733 197.8372 -219.8658)" fill="#50B8E7" width="2" height="24.4"/>
	</g>
	<g opacity="0.5">
		
			<rect x="278.3" y="80" transform="matrix(0.8575 0.5145 -0.5145 0.8575 83.0012 -137.6607)" fill="#50B8E7" width="23.3" height="2"/>
	</g>
	<g opacity="0.5">
		
			<rect x="269" y="68.2" transform="matrix(0.3715 0.9284 -0.9284 0.3715 243.0489 -201.0264)" fill="#50B8E7" width="2" height="21.5"/>
	</g>
	<g opacity="0.5">
		
			<rect x="249" y="78.7" transform="matrix(0.6891 0.7247 -0.7247 0.6891 144.771 -152.4145)" fill="#50B8E7" width="2" height="27.6"/>
	</g>
	<g opacity="0.5">
		
			<rect x="215.5" y="90.5" transform="matrix(0.6897 0.7241 -0.7241 0.6897 137.6379 -138.1552)" fill="#50B8E7" width="29" height="2"/>
	</g>
	<g opacity="0.5">
		
			<rect x="209" y="76" transform="matrix(0.6002 0.7999 -0.7999 0.6002 154.7568 -132.5892)" fill="#50B8E7" width="2" height="25"/>
	</g>
	<g opacity="0.5">
		
			<rect x="169" y="89.2" transform="matrix(0.3715 0.9284 -0.9284 0.3715 199.6936 -94.9828)" fill="#50B8E7" width="2" height="21.5"/>
	</g>
	<g opacity="0.5">
		<rect x="180" y="95" fill="#50B8E7" width="20" height="2"/>
	</g>
	<g opacity="0.5">
		
			<rect x="139.2" y="99" transform="matrix(0.9285 0.3714 -0.3714 0.9285 47.8676 -48.5563)" fill="#50B8E7" width="21.5" height="2"/>
	</g>
	<g opacity="0.5">
		
			<rect x="129" y="92.9" transform="matrix(0.8234 0.5675 -0.5675 0.8234 85.6666 -54.2568)" fill="#50B8E7" width="2" height="35.2"/>
	</g>
	<g opacity="0.5">
		
			<rect x="96.2" y="114.5" transform="matrix(0.725 0.6887 -0.6887 0.725 109.8006 -43.9999)" fill="#50B8E7" width="27.6" height="2"/>
	</g>
	<g opacity="0.5">
		<rect x="89" y="102" transform="matrix(0.7242 0.6896 -0.6896 0.7242 105.1527 -29.9331)" fill="#50B8E7" width="2" height="29"/>
	</g>
	<g opacity="0.5">
		<rect x="59.2" y="122" transform="matrix(0.9285 0.3714 -0.3714 0.9285 50.6877 -17.2)" fill="#50B8E7" width="21.5" height="2"/>
	</g>
	<g opacity="0.5">
		
			<rect x="49" y="115.6" transform="matrix(0.7927 0.6096 -0.6096 0.7927 90.8265 -3.1192)" fill="#50B8E7" width="2" height="32.8"/>
	</g>
	<g opacity="0.5">
		
			<rect x="34" y="140.9" transform="matrix(0.1963 0.9805 -0.9805 0.1963 171.2887 83.0206)" fill="#50B8E7" width="2" height="10.2"/>
	</g>
	<g>
		<circle fill="#50B8E7" cx="480" cy="24" r="3"/>
	</g>
	<g opacity="0.5">
		
			<rect x="469" y="20.9" transform="matrix(0.8234 0.5675 -0.5675 0.8234 104.8567 -259.9168)" fill="#50B8E7" width="2" height="35.2"/>
	</g>
	<g opacity="0.5">
		
			<rect x="484" y="15.9" transform="matrix(0.4472 0.8944 -0.8944 0.4472 287.3316 -421.9123)" fill="#50B8E7" width="2" height="11.2"/>
	</g>
	<g opacity="0.25">
		<rect x="59" y="122" fill="#50B8E7" width="2" height="65"/>
	</g>
	<g opacity="0.25">
		<rect x="39" y="148" fill="#50B8E7" width="2" height="39"/>
	</g>
	<g opacity="0.25">
		<rect x="79" y="130" fill="#50B8E7" width="2" height="57"/>
	</g>
	<g opacity="0.25">
		<rect x="99" y="109" fill="#50B8E7" width="2" height="78"/>
	</g>
	<g opacity="0.25">
		<rect x="119" y="128" fill="#50B8E7" width="2" height="59"/>
	</g>
	<g opacity="0.25">
		<rect x="159" y="107" fill="#50B8E7" width="2" height="80"/>
	</g>
	<g opacity="0.25">
		<rect x="179" y="99" fill="#50B8E7" width="2" height="88"/>
	</g>
	<g opacity="0.25">
		<rect x="199" y="99" fill="#50B8E7" width="2" height="88"/>
	</g>
	<g opacity="0.25">
		<rect x="219" y="84" fill="#50B8E7" width="2" height="103"/>
	</g>
	<g opacity="0.25">
		<rect x="239" y="105" fill="#50B8E7" width="2" height="82"/>
	</g>
	<g opacity="0.25">
		<rect x="259" y="86" fill="#50B8E7" width="2" height="101"/>
	</g>
	<g opacity="0.25">
		<rect x="279" y="78" fill="#50B8E7" width="2" height="109"/>
	</g>
	<g opacity="0.25">
		<rect x="299" y="90" fill="#50B8E7" width="2" height="97"/>
	</g>
	<g opacity="0.25">
		<rect x="319" y="76" fill="#50B8E7" width="2" height="111"/>
	</g>
	<g opacity="0.25">
		<rect x="359" y="62" fill="#50B8E7" width="2" height="125"/>
	</g>
	<g opacity="0.25">
		<rect x="339" y="80" fill="#50B8E7" width="2" height="107"/>
	</g>
	<g opacity="0.25">
		<rect x="439" y="44" fill="#50B8E7" width="2" height="143"/>
	</g>
	<g opacity="0.25">
		<rect x="419" y="66" fill="#50B8E7" width="2" height="121"/>
	</g>
	<g opacity="0.25">
		<rect x="379" y="81" fill="#50B8E7" width="2" height="106"/>
	</g>
	<g opacity="0.5">
		<rect x="399" y="41" fill="#FD9838" width="2" height="146"/>
	</g>
	<g opacity="0.25">
		<rect x="459" y="56" fill="#50B8E7" width="2" height="131"/>
	</g>
	<g opacity="0.25">
		<rect x="479" y="27" fill="#50B8E7" width="2" height="160"/>
	</g>
	<g opacity="0.25">
		<rect x="139" y="99" fill="#50B8E7" width="2" height="88"/>
	</g>
	<g>
		<circle fill="#FFFFFF" cx="480" cy="24" r="1"/>
	</g>
	<g>
		<circle fill="#FFFFFF" cx="460" cy="53" r="1"/>
	</g>
	<g>
		<circle fill="#FFFFFF" cx="440" cy="41" r="1"/>
	</g>
	<g>
		<circle fill="#FFFFFF" cx="420" cy="63" r="1"/>
	</g>
	<g>
		<circle fill="#FFFFFF" cx="400" cy="38" r="1"/>
	</g>
	<g>
		<circle fill="#FFFFFF" cx="380" cy="78" r="1"/>
	</g>
	<g>
		<circle fill="#FFFFFF" cx="360" cy="59" r="1"/>
	</g>
	<g>
		<circle fill="#FFFFFF" cx="340" cy="77" r="1"/>
	</g>
	<g>
		<circle fill="#FFFFFF" cx="320" cy="73" r="1"/>
	</g>
	<g>
		<circle fill="#FFFFFF" cx="300" cy="87" r="1"/>
	</g>
	<g>
		<circle fill="#FFFFFF" cx="280" cy="75" r="1"/>
	</g>
	<g>
		<circle fill="#FFFFFF" cx="260" cy="83" r="1"/>
	</g>
	<g>
		<circle fill="#FFFFFF" cx="240" cy="102" r="1"/>
	</g>
	<g>
		<circle fill="#FFFFFF" cx="220" cy="81" r="1"/>
	</g>
	<g>
		<circle fill="#FFFFFF" cx="200" cy="96" r="1"/>
	</g>
	<g>
		<circle fill="#FFFFFF" cx="180" cy="96" r="1"/>
	</g>
	<g>
		<circle fill="#FFFFFF" cx="160" cy="104" r="1"/>
	</g>
	<g>
		<circle fill="#FFFFFF" cx="140" cy="96" r="1"/>
	</g>
	<g>
		<circle fill="#FFFFFF" cx="120" cy="125" r="1"/>
	</g>
	<g>
		<circle fill="#FFFFFF" cx="100" cy="106" r="1"/>
	</g>
	<g>
		<circle fill="#FFFFFF" cx="80" cy="127" r="1"/>
	</g>
	<g>
		<circle fill="#FFFFFF" cx="60" cy="119" r="1"/>
	</g>
	<g>
		<circle fill="#FFFFFF" cx="40" cy="145" r="1"/>
	</g>
</g>
<g>
	<g>
		<g>
			<path fill="#FFFFFF" d="M279.2,222l-0.3-0.5c-0.2-0.4-0.5-0.8-0.5-1l-3.3-3.3l-3.4-3.5c-1.4-1.5-2.6-2.9-3.7-4.4
				c-1.1-1.4-2.2-3-3.3-4.8c-0.4-0.7-0.8-1.3-1.1-2l-0.2-0.3c-0.4-0.8-0.8-1.4-1.1-2.1l-1.6-3.1H228c-7.2,0-13-5.8-13-13v-21.5
				l-3.8-2.9c-0.9,0.3-1.7,0.4-2.6,0.4c-2.4,0-5.7-1-7.6-3.1c-2.7-2.5-2.9-5.8-2.9-9.9c0-1.5,0.5-4.4,1.7-6.1
				c0.1-0.2,0.3-0.5,0.6-0.8c-2.6-0.9-4.7-2.2-5.9-3.8l-0.1-0.1c0,0-0.1-0.2-0.1-0.2c0,0-0.1-0.1-0.1-0.3c-0.1-0.2-0.3-1.1,0-2.2
				l3.3-11.9c1-3.6,3.1-6.8,5.9-9.2l0.2-0.2c0.4-0.4,0.9-0.7,1.3-1L197,112c-0.3,0-0.5,0-0.7,0c-2.5,0-4.8-1-6.7-2.7
				c-2.3-2.1-3.6-5.1-3.6-8.1c0-1.7,0.4-3.6,1.1-4.9l1.6-3c1.8-3.5,4.8-6.2,8.3-7.8l4-1.8c0.4-0.2,0.7-0.4,1-0.6l3-2.3
				c0.6-0.5,1.2-0.8,1.9-1.1c-8.5-3.9-15.8-8.5-15.8-15.4v-0.6c0-4.3,2.8-8.2,7.2-10.2l0.3-0.2c2-0.9,4.2-1.4,6.5-1.4
				c1.2,0,2.4,0.1,3.5,0.4l6.5,1.4V21c0-7.2,5.8-13,13-13h69c7.2,0,13,5.8,13,13v71c0.9,0.6,2.3,1.7,4.4,3.2
				c3.1,2.3,7.8,5.9,13.3,10.5c2.1,1.8,5.3,4.4,8.5,7.5c3.6,3.3,6.5,6.2,9,9.1c1.8,2.1,3.1,3.8,4.2,5.5c0.3,0.5,0.7,1,0.9,1.6
				l0.4,0.7c0.2,0.4,0.3,0.6,0.5,1c0.5,1.2,0.9,2.4,1.2,3.5c1.3,4.7,2.2,9.7,2.9,13.8c0.9,5.6,1.8,11.1,2.6,16.6
				c0.5,3.6,1,7.1,1.6,10.5l0.5,3.2l0.6,3c0.5,2,1,4,1.5,5.8c1.3,4.3,2.4,7.6,3.5,10.5c2.4,6.4,4.7,11.6,6.5,15.4
				c1.7,3.6,2.8,5.7,2.8,5.7c0.1,0.3,0.8,1.8,0.8,1.8l0.6,1.4L279.2,222z"/>
		</g>
		<g>
			<path fill="#FFFFFF" d="M297,9c6.6,0,12,5.4,12,12v71.5c0.7,0.5,2.4,1.7,4.8,3.5c3.3,2.4,7.9,6,13.3,10.5
				c2.7,2.2,5.6,4.7,8.5,7.4c2.9,2.7,6,5.7,8.9,9c1.4,1.7,2.8,3.4,4.1,5.4c0.3,0.5,0.6,1,0.9,1.5l0.4,0.7c0.2,0.3,0.3,0.6,0.4,0.9
				c0.5,1.1,0.8,2.2,1.1,3.4c1.2,4.5,2.1,9.1,2.9,13.7c1.6,9.2,2.8,18.4,4.1,27c0.2,1.1,0.3,2.1,0.5,3.2c0.2,1,0.4,2.1,0.6,3.1
				c0.5,2,1,4,1.5,5.9c1.1,3.8,2.3,7.4,3.5,10.6c2.4,6.5,4.8,11.8,6.5,15.5c1.7,3.7,2.8,5.7,2.8,5.7c0.1,0.2,0.8,1.7,0.8,1.7h-94.9
				c0,0-0.5-1-0.7-1.2c0,0-1.3-1.3-3.3-3.4c-1-1-2.1-2.2-3.4-3.5c-1.2-1.3-2.5-2.8-3.7-4.3c-1.2-1.5-2.3-3.1-3.2-4.7
				c-0.5-0.8-0.9-1.5-1.3-2.3c-0.4-0.7-0.7-1.4-1.1-2.1c-0.8-1.7-1.5-3-1.8-3.7H228c-6.6,0-12-5.4-12-12v-22l-4.6-3.5
				c-0.9,0.3-1.8,0.5-2.8,0.5c-2.1,0-5.2-0.9-6.9-2.8c-2.5-2.3-2.7-5.3-2.7-9.2c0-1.5,0.5-4.2,1.5-5.6c0,0,0.6-1,1.8-1.9
				c-2.8-0.6-5.6-2-7.1-4c0,0,0,0,0,0c0,0,0-0.1-0.1-0.1c0,0-0.1-0.1-0.1-0.1c0-0.1-0.2-0.8,0-1.6l3.3-12c1-3.4,2.9-6.4,5.6-8.7
				l0.2-0.2c1.7-1.4,3.7-2.5,5.8-3.1c-1,0-2.1,0.1-3.1,0.2l-0.8,0.1l0,0c0,0,0,0,0,0l0,0l-9.1,1c-0.2,0-0.4,0-0.6,0
				c-2.2,0-4.3-0.9-6.1-2.5c-2.1-1.9-3.2-4.6-3.2-7.4c0-1.5,0.4-3.2,1-4.4l1.6-3c1.7-3.3,4.5-5.9,7.8-7.3l4-1.8
				c0.4-0.2,0.8-0.4,1.2-0.7l3-2.3c1.4-1,2.9-1.6,4.6-1.6l-0.9-0.3c-9-3.9-17.2-8.5-17.2-15.4v-0.6c0-3.9,2.5-7.4,6.6-9.3l0.3-0.2
				c1.9-0.9,4-1.3,6.1-1.3c1.1,0,2.2,0.1,3.3,0.4l7.7,1.7V21c0-6.6,5.4-12,12-12H297 M297,7h-69c-7.7,0-14,6.3-14,14v31.6l-5.3-1.2
				c-1.2-0.3-2.5-0.4-3.7-0.4c-2.4,0-4.8,0.5-6.9,1.5l-0.3,0.2C193,54.8,190,59,190,63.7v0.6c0,7,6.6,11.6,14.6,15.5
				c-0.1,0.1-0.2,0.2-0.3,0.2l-3,2.3c-0.3,0.2-0.5,0.4-0.8,0.5l-4,1.8c-3.7,1.6-6.8,4.6-8.7,8.2l-1.6,3c-0.8,1.5-1.2,3.5-1.2,5.4
				c0,3.3,1.4,6.5,3.9,8.8c2.1,1.9,4.7,3,7.4,3c0.3,0,0.5,0,0.8,0l0,0l0,0l4.5-0.5c-2.5,2.4-4.3,5.4-5.2,8.7l-3.3,12
				c-0.4,1.3-0.1,2.3,0,2.7c0.1,0.2,0.2,0.4,0.2,0.5c0,0,0,0.1,0,0.1l0.1,0.1l0.2,0.2c1.3,1.8,3.3,2.9,5.1,3.7
				c-1.2,1.9-1.7,4.9-1.7,6.5c0,4.3,0.2,7.8,3.2,10.6c2.1,2.3,5.7,3.4,8.3,3.4c0.8,0,1.6-0.1,2.4-0.3l3.1,2.3v21c0,7.7,6.3,14,14,14
				h32.1l1.3,2.6c0.4,0.7,0.7,1.4,1.1,2.1l0.2,0.4c0.4,0.6,0.7,1.3,1.1,2c1,1.8,2.2,3.4,3.3,4.9c1.1,1.4,2.4,2.9,3.8,4.4l2.1,2.2
				l1.3,1.3l3.2,3.3c0.1,0.2,0.3,0.5,0.4,0.8l0.6,1.1h1.2h94.9h3.1l-1.2-2.8c-0.3-0.6-0.7-1.6-0.8-1.8c0,0-1.1-2.1-2.8-5.7
				c-1.8-3.8-4.1-9-6.5-15.3c-1.1-2.9-2.2-6.2-3.5-10.5c-0.5-1.8-1-3.7-1.5-5.7l-0.4-1.8l-0.2-1.2l0-0.1l-0.5-3.1
				c-0.5-3.4-1-6.8-1.6-10.4c-0.8-5.4-1.6-11-2.6-16.6c-0.7-4.1-1.6-9.1-2.9-13.9c-0.3-1.1-0.7-2.3-1.2-3.6c-0.2-0.3-0.3-0.6-0.5-1
				l0,0l0,0l-0.4-0.7c-0.3-0.5-0.7-1.1-1-1.6c-1.2-1.8-2.5-3.5-4.3-5.6c-2.5-2.9-5.4-5.8-9-9.2c-3.3-3-6.5-5.7-8.6-7.5
				c-5.6-4.7-10.3-8.2-13.4-10.5c-1.7-1.3-3.1-2.3-4-2.9V21C311,13.3,304.7,7,297,7L297,7z"/>
		</g>
	</g>
	<g opacity="0.25">
		<path fill="#9EA3A5" d="M311,138c-1.1,0-2-0.9-2-2l-1-40c0-1.1,0.8-2,1.9-2c1.1-0.1,2,0.8,2,1.9l1,40C313,137.1,312.2,138,311,138
			C311,138,311,138,311,138z"/>
	</g>
	<g>
		<g>
			<g>
				<path fill="#9EA3A5" d="M323.6,134c0,0-0.3,0.1-0.7,0.2c-0.4,0.1-1.1,0.3-1.8,0.6c-1.5,0.5-3.5,1.2-5.4,2
					c-1.9,0.8-3.7,1.8-5.1,2.6c-1.3,0.8-2.1,1.4-2.1,1.4c-0.4,0.3-1.1,0.2-1.4-0.2c-0.3-0.4-0.2-1.1,0.2-1.4c0,0,0,0,0,0l0,0
					c0,0,0.9-0.6,2.3-1.4c1.4-0.8,3.4-1.7,5.4-2.4c2-0.7,4.1-1.4,5.6-1.8c0.8-0.2,1.4-0.4,1.9-0.5c0.4-0.1,0.7-0.2,0.7-0.2
					c0.3-0.1,0.5,0.1,0.6,0.4C324,133.6,323.9,133.9,323.6,134z"/>
			</g>
			<g>
				<path fill="#9EA3A5" d="M313,120.5c0,0,0,1.3,0.1,3.4c0.1,2,0.3,4.7,0.1,7.5c-0.1,0.7-0.1,1.4-0.3,2.1c-0.1,0.3-0.1,0.7-0.2,1
					c-0.1,0.3-0.2,0.7-0.3,1c-0.2,0.7-0.6,1.2-0.9,1.8c-0.4,0.5-0.7,1-1.1,1.4c-0.2,0.2-0.4,0.4-0.6,0.6c-0.2,0.2-0.4,0.3-0.6,0.4
					c-0.3,0.3-0.7,0.5-0.9,0.7c-0.5,0.3-0.8,0.5-0.8,0.5c-0.5,0.3-1.1,0.2-1.4-0.3c-0.3-0.5-0.2-1.1,0.3-1.4c0,0,0,0,0,0l0.1,0
					c0,0,0.3-0.2,0.8-0.4c0.2-0.1,0.5-0.3,0.8-0.5c0.2-0.1,0.3-0.2,0.5-0.4c0.2-0.1,0.3-0.3,0.5-0.4c0.4-0.3,0.6-0.7,1-1.1
					c0.3-0.4,0.6-0.9,0.8-1.4c0.1-0.3,0.2-0.5,0.3-0.8c0.1-0.3,0.2-0.6,0.2-0.9c0.2-0.6,0.2-1.2,0.3-1.9c0.3-2.6,0.2-5.3,0.2-7.4
					c0-2,0-3.4,0-3.4c0-0.3,0.2-0.5,0.5-0.5C312.8,120,313,120.2,313,120.5L313,120.5z"/>
			</g>
			<g>
				<path fill="#9EA3A5" d="M297,220.5c0,0,0-2,0-5c0-1.5,0-3.2,0.1-5.1c0.1-0.9,0.1-1.9,0.2-2.9c0.1-1,0.3-2,0.4-3l0.3-1.5
					c0.1-0.5,0.3-1,0.4-1.5c0.3-1,0.6-1.9,1-2.8c0.4-0.9,0.8-1.7,1.2-2.5c0.5-0.8,0.9-1.5,1.3-2.1c0.4-0.6,0.9-1.2,1.3-1.7
					c0.4-0.5,0.7-0.9,1-1.2c0.6-0.7,0.9-1,0.9-1c0.4-0.4,1-0.4,1.4-0.1c0.4,0.4,0.4,1,0.1,1.4c0,0,0,0,0,0l0,0c0,0-0.3,0.3-0.9,0.9
					c-0.3,0.3-0.6,0.7-1,1.1c-0.4,0.4-0.8,0.9-1.2,1.5c-0.5,0.6-0.9,1.2-1.3,1.9c-0.4,0.7-0.9,1.5-1.2,2.3c-0.4,0.8-0.7,1.7-1,2.6
					c-0.1,0.5-0.3,0.9-0.4,1.4l-0.3,1.4c-0.2,1-0.4,1.9-0.5,2.9c-0.1,1-0.2,1.9-0.3,2.8c-0.2,1.8-0.2,3.6-0.3,5
					c-0.1,3-0.1,4.9-0.1,4.9c0,0.3-0.2,0.5-0.5,0.5C297.2,221,297,220.8,297,220.5L297,220.5z"/>
			</g>
			<g opacity="0.5">
				<polygon fill="#9EA3A5" points="217.2,160.3 212.2,157.8 216,154.5 217.3,153 				"/>
			</g>
			<g>
				<path fill="#9EA3A5" d="M374.1,220.7c0,0-1.2-2-3.1-5.7c-1-1.8-2.1-4-3.3-6.6c-1.3-2.6-2.6-5.5-4-8.8c-1.4-3.2-2.8-6.8-4.1-10.7
					c-0.3-1-0.6-2-0.9-3c-0.3-1-0.5-2-0.8-3.1c-0.5-2.1-0.9-4.3-1.2-6.4c-1.4-8.7-2.6-18-4.2-27.2c-0.8-4.6-1.6-9.2-2.8-13.6
					c-1-4.5-3.7-7.9-6.5-11.2c-2.8-3.3-5.8-6.3-8.8-9c-2.9-2.7-5.8-5.2-8.5-7.4c-5.4-4.5-10-8-13.3-10.5c-3.3-2.4-5.2-3.8-5.2-3.8
					c-0.5-0.3-0.6-0.9-0.2-1.4s0.9-0.6,1.4-0.2l0,0c0,0,1.9,1.4,5.2,3.8c3.3,2.5,8,6,13.4,10.5c2.7,2.3,5.6,4.8,8.6,7.5
					c3,2.8,6,5.8,8.9,9.1c1.5,1.7,2.8,3.5,4.1,5.5c0.3,0.5,0.6,1,0.9,1.5c0.3,0.5,0.6,1.1,0.8,1.7c0.4,1.1,0.8,2.2,1.1,3.4
					c1.2,4.5,2,9.2,2.8,13.8c1.6,9.3,2.8,18.6,4.2,27.2c0.3,2.2,0.7,4.3,1.2,6.3c0.3,1,0.5,2,0.8,3c0.3,1,0.6,1.9,0.9,2.9
					c1.2,3.8,2.5,7.4,3.8,10.6c1.3,3.2,2.5,6.2,3.7,8.8c1.2,2.6,2.2,4.8,3.1,6.7c1.8,3.7,2.9,5.7,2.9,5.7c0.1,0.2,0,0.5-0.2,0.7
					C374.5,221.1,374.2,221,374.1,220.7z"/>
			</g>
			<g opacity="0.25">
				<g>
					<rect x="214" y="56" fill="#9EA3A5" width="2" height="25"/>
				</g>
			</g>
			<g opacity="0.5">
				<g>
					
						<rect x="288" y="115.5" transform="matrix(2.324951e-02 0.9997 -0.9997 2.324951e-02 418.7728 -195.6249)" fill="#9EA3A5" width="43" height="2"/>
				</g>
			</g>
			<g opacity="0.5">
				<g>
					<g>
						<path fill="#9EA3A5" d="M251,161c0,0,0.3,0.1,0.7,0.4c0.5,0.3,1.2,0.7,2.1,1.1c1.8,0.9,4.6,1.9,8,2.1c1.7,0.1,3.6,0.1,5.3-0.4
							c1.8-0.5,3.7-1.3,5.6-2.2c1-0.5,1.9-1,3-1.5c1-0.5,2.1-1,3.4-1.5c0.4-0.1,0.7-0.2,1.2-0.3c0.1,0,0.2,0,0.4,0l0.2,0l0.1,0
							l0.1,0l0.1,0c0.2,0,0.3,0,0.5,0c0.5,0,0.9,0.1,1.3,0.2c0.4,0.1,0.8,0.2,1.1,0.3c1.4,0.5,2.5,1.2,3.6,1.9c1.1,0.7,2,1.3,3,2
							c1,0.7,1.9,1.4,2.8,2.1c1.9,1.4,3.7,2.7,5.5,4.1c0.4,0.3,0.9,0.7,1.3,1l0.6,0.5l0.3,0.2l0.2,0.2l0.2,0.1
							c0.3,0.3,1,0.9,1.4,1.4c0.4,0.5,0.8,1,1.1,1.5c1.3,2.1,1.7,4.3,1.9,6.2c0.1,1.9,0,3.6-0.1,5.1c-0.2,1.5-0.4,2.7-0.6,3.8
							c-0.2,1-0.4,1.8-0.5,2.4c-0.1,0.6-0.2,0.8-0.2,0.8s-0.1-0.3-0.2-0.9c-0.1-0.6-0.2-1.4-0.3-2.4c-0.2-1-0.2-2.3-0.5-3.7
							c-0.2-1.4-0.4-3-0.9-4.5c-0.4-1.6-1.1-3.1-2.1-4.4c-0.3-0.3-0.5-0.6-0.8-0.9c-0.3-0.3-0.4-0.4-1-0.8c-0.9-0.6-1.7-1.2-2.6-1.8
							c-1.8-1.3-3.7-2.6-5.6-3.9c-0.9-0.7-1.9-1.4-2.8-2.1c-0.9-0.7-1.9-1.4-2.8-2c-0.9-0.6-1.8-1.2-2.6-1.5
							c-0.2-0.1-0.4-0.2-0.6-0.2c-0.2-0.1-0.4-0.1-0.4-0.1c-0.1,0-0.3,0-0.4,0c0,0-0.1,0,0.1,0l0,0l0,0l0,0c0,0,0,0-0.1,0
							c-0.1,0-0.3,0-0.5,0.1c-0.9,0.2-1.9,0.6-3,1.1c-1.1,0.4-2.1,0.8-3.2,1.2c-2.2,0.8-4.4,1.4-6.6,1.6c-0.6,0-1.1,0.1-1.7,0.1
							c-0.3,0-0.5,0-0.8,0c-0.3,0-0.5,0-0.8-0.1c-1-0.1-2-0.3-2.9-0.5c-3.7-0.8-6.3-2.4-8-3.7c-0.8-0.6-1.5-1.2-1.9-1.6
							C251.2,161.2,251,161,251,161z"/>
					</g>
				</g>
			</g>
			<g opacity="0.25">
				<g>
					<g>
						<g>
							<path fill="#9EA3A5" d="M252.2,159.8c0,0,0.2,0.2,0.7,0.4c0.5,0.3,1.2,0.6,2.1,0.9c1.9,0.7,4.7,1,8.1,1c0.9,0,1.7,0,2.7,0
								c0.9,0,1.8-0.2,2.7-0.3c1.9-0.4,3.8-1.1,5.7-1.9c1-0.4,2-0.9,3-1.3c1-0.4,2.1-0.9,3.4-1.2c0.3-0.1,0.7-0.1,1.1-0.1
								c0.3,0,0.6,0,0.9,0c0.7,0,1.4,0.2,2,0.5c1.2,0.5,2.2,1.2,3.2,1.8c0.5,0.3,0.9,0.6,1.5,1l1.4,1.1c0.9,0.7,1.8,1.4,2.7,2.1
								c1.8,1.4,3.5,2.8,5.2,4.1c0.8,0.7,1.7,1.3,2.5,2c0.9,0.7,1.7,1.5,2.3,2.4c1.3,1.7,2.1,3.5,2.6,5.3c1,3.5,1.1,6.4,1,8.4
								c0,1-0.1,1.8-0.1,2.3c-0.1,0.5-0.1,0.8-0.1,0.8s-0.1-1.2-0.4-3.1c-0.2-1-0.3-2.2-0.7-3.5c-0.3-1.3-0.7-2.8-1.4-4.4
								c-0.6-1.5-1.5-3.1-2.7-4.5c-0.6-0.7-1.2-1.3-2-1.9c-0.8-0.6-1.7-1.3-2.5-1.9c-1.7-1.3-3.5-2.7-5.2-4.1
								c-0.9-0.7-1.8-1.4-2.7-2.1l-1.3-1.1l-1.3-1c-0.9-0.6-1.9-1.3-2.7-1.7c-0.4-0.2-0.8-0.3-1.3-0.4c-0.2,0-0.5,0-0.8-0.1
								c-0.2,0-0.4,0-0.6,0c-0.9,0.2-2,0.6-3,1c-1,0.4-2.1,0.8-3.1,1.1c-2.1,0.7-4.1,1.4-6.2,1.6c-1,0.1-2.1,0.2-3,0.1
								c-0.9,0-1.8-0.1-2.7-0.2c-1.7-0.1-3.3-0.3-4.7-0.7c-1.4-0.3-2.6-0.7-3.5-1.1c-0.9-0.4-1.6-0.9-2-1.2
								C252.5,160,252.2,159.8,252.2,159.8z"/>
						</g>
					</g>
				</g>
			</g>
			<g>
				<g>
					<g>
						<g>
							<g>
								<path fill="#9EA3A5" d="M262.9,194.6c0,0,0.8,1.8,2,4.4c0.3,0.6,0.6,1.4,1,2.1c0.4,0.7,0.8,1.5,1.2,2.3
									c0.9,1.6,1.9,3.2,2.9,4.8c1.1,1.6,2.2,3.1,3.3,4.5c1.1,1.4,2.3,2.7,3.2,3.8c1.9,2.2,3.2,3.7,3.2,3.7
									c0.2,0.2,0.2,0.5-0.1,0.7c-0.2,0.2-0.5,0.2-0.7,0c0,0-1.4-1.4-3.4-3.5c-1-1.1-2.2-2.3-3.5-3.6c-1.2-1.4-2.5-2.9-3.7-4.5
									c-1.2-1.6-2.2-3.3-3.2-4.9c-0.5-0.8-0.9-1.6-1.3-2.4c-0.4-0.8-0.7-1.5-1-2.2c-1.2-2.7-2-4.4-2-4.4c-0.2-0.5,0-1.1,0.5-1.3
									C262.1,193.9,262.7,194.1,262.9,194.6z"/>
							</g>
						</g>
					</g>
				</g>
				<g opacity="0.25">
					<path fill="#9EA3A5" d="M299.7,199.4L297,215v-6c0-5.5-4.5-10-10-10h-23l-2.7-3.9h37.1l5.6-2.5L299.7,199.4z"/>
				</g>
				<g opacity="0.25">
					<path fill="#9EA3A5" d="M309,206.8l-4.4-5.3c-0.9-1.1-2.8-0.9-3.4,0.5l-2.9,6.5L297,213c0-13.2-1.5-16-8-16h-26l-0.3-1.9h37
						l5.9-4.4L309,206.8z"/>
				</g>
				<g opacity="0.25">
					<path fill="#9EA3A5" d="M306.8,202.9l11.2,16.4l-12.5-15.6c-1.2-1.4-2.8-1.5-3.8,0c-1.9,3.1-3.8,10.2-3.8,13.2
						c0,4.8-0.2-11.1-0.2-11.1l1.9-7.5l5.9-8.8L306.8,202.9z"/>
				</g>
			</g>
			<g>
				<g>
					<g opacity="0.25">
						<g>
							<path fill="#9EA3A5" d="M297,12c5,0,9,4,9,9v163c0,5-4,9-9,9h-69c-5,0-9-4-9-9V21c0-5,4-9,9-9H297 M297,11h-69
								c-5.5,0-10,4.5-10,10v163c0,5.5,4.5,10,10,10h69c5.5,0,10-4.5,10-10V21C307,15.5,302.5,11,297,11L297,11z"/>
						</g>
					</g>
					<g>
						<g>
							<g opacity="0.5">
								<path fill="#9EA3A5" d="M300.5,51h-76c-0.3,0-0.5-0.2-0.5-0.5s0.2-0.5,0.5-0.5h76c0.3,0,0.5,0.2,0.5,0.5S300.8,51,300.5,51z
									"/>
							</g>
							<g opacity="0.5">
								<path fill="#9EA3A5" d="M300.5,141h-76c-0.3,0-0.5-0.2-0.5-0.5s0.2-0.5,0.5-0.5h76c0.3,0,0.5,0.2,0.5,0.5
									S300.8,141,300.5,141z"/>
							</g>
							<g>
								<path fill="#9EA3A5" d="M302,165h-79V35h79V165z M225,163h75V37h-75V163z"/>
							</g>
							<g opacity="0.25">
								<g>
									<path fill="#9EA3A5" d="M301,36v128h-77V36H301 M303,34h-2h-77h-2v2v128v2h2h77h2v-2V36V34L303,34z"/>
								</g>
							</g>
							<g>
								<path fill="#9EA3A5" d="M262.5,172c4.1,0,7.5,3.4,7.5,7.5s-3.4,7.5-7.5,7.5c-4.1,0-7.5-3.4-7.5-7.5S258.4,172,262.5,172
									 M262.5,171c-4.7,0-8.5,3.8-8.5,8.5s3.8,8.5,8.5,8.5s8.5-3.8,8.5-8.5S267.2,171,262.5,171L262.5,171z"/>
							</g>
							<g opacity="0.25">
								<g>
									<path fill="#9EA3A5" d="M255,179.5c0,0,0-0.1,0-0.3c0-0.2-0.1-0.4-0.1-0.8c0-0.3,0-0.8,0.1-1.2c0.1-0.5,0.2-1,0.4-1.6
										c0.2-0.5,0.5-1.1,1-1.7c0.4-0.6,1-1.1,1.6-1.5c0.6-0.5,1.3-0.8,2.1-1.1c0.8-0.3,1.6-0.4,2.5-0.4c0.7,0,1.6,0.1,2.4,0.4
										c0.8,0.3,1.5,0.6,2.1,1.1c0.6,0.5,1.2,1,1.6,1.5c0.4,0.5,0.7,1.1,1,1.7c0.2,0.6,0.4,1.1,0.4,1.6c0.1,0.5,0.1,0.9,0.1,1.2
										c0,0.3-0.1,0.6-0.1,0.8c0,0.2,0,0.3,0,0.3s0-0.1-0.1-0.3c-0.1-0.2-0.1-0.4-0.2-0.7c-0.1-0.3-0.2-0.7-0.4-1.1
										c-0.2-0.4-0.4-0.8-0.7-1.2c-0.3-0.4-0.7-0.8-1.1-1.2c-0.4-0.4-0.9-0.7-1.4-1.1c-0.5-0.3-1.1-0.5-1.7-0.7
										c-0.6-0.2-1.1-0.2-1.9-0.3c-0.5,0-1.2,0.1-1.8,0.2c-0.6,0.2-1.2,0.4-1.7,0.7c-0.5,0.3-1,0.6-1.4,1.1
										c-0.4,0.4-0.8,0.8-1.1,1.2c-0.3,0.4-0.5,0.8-0.7,1.2c-0.2,0.4-0.3,0.7-0.4,1c-0.1,0.3-0.2,0.6-0.2,0.7
										C255,179.4,255,179.5,255,179.5z"/>
								</g>
							</g>
							<g>
								<rect x="305" y="178" fill="#FFFFFF" width="2" height="2"/>
							</g>
							<g>
								<rect x="218" y="178" fill="#FFFFFF" width="2" height="2"/>
							</g>
							<g>
								<path fill="#9EA3A5" d="M297,11c5.5,0,10,4.5,10,10v163c0,5.5-4.5,10-10,10h-69c-5.5,0-10-4.5-10-10V21c0-5.5,4.5-10,10-10
									H297 M297,9h-69c-6.6,0-12,5.4-12,12v163c0,6.6,5.4,12,12,12h69c6.6,0,12-5.4,12-12V21C309,14.4,303.6,9,297,9L297,9z"/>
							</g>
							<g opacity="0.25">
								<g>
									<path fill="#9EA3A5" d="M271,178c0,0,0,0.1,0.1,0.3c0,0.2,0.1,0.5,0.1,0.9c0.1,0.4,0,0.9,0,1.5c-0.1,0.6-0.2,1.2-0.4,1.9
										c-0.2,0.7-0.5,1.4-1,2.2c-0.5,0.7-1,1.4-1.8,2c-0.7,0.6-1.6,1.2-2.5,1.5c-1,0.4-1.9,0.5-3.1,0.6c-0.8,0-2.1-0.2-3-0.6
										c-1-0.3-1.8-0.9-2.5-1.5c-0.7-0.6-1.3-1.3-1.8-2c-0.5-0.7-0.8-1.5-1-2.2c-0.2-0.7-0.3-1.4-0.4-1.9c0-0.6,0-1.1,0-1.5
										c0-0.4,0.1-0.7,0.1-0.9c0-0.2,0.1-0.3,0.1-0.3s0.1,0.5,0.2,1.3c0.1,0.4,0.2,0.9,0.4,1.4c0.2,0.5,0.4,1.1,0.7,1.7
										c0.3,0.6,0.7,1.2,1.1,1.7c0.5,0.6,1,1.1,1.6,1.5c0.6,0.5,1.3,0.8,2.1,1.1c0.8,0.3,1.4,0.4,2.4,0.4c0.7,0,1.6-0.1,2.3-0.4
										c0.8-0.2,1.5-0.6,2.1-1.1c0.6-0.4,1.2-1,1.6-1.5c0.5-0.6,0.8-1.2,1.1-1.7c0.3-0.6,0.5-1.1,0.7-1.7c0.1-0.5,0.3-1,0.3-1.4
										C270.9,178.5,271,178,271,178z"/>
								</g>
							</g>
							<g>
								<path fill="#9EA3A5" d="M262.5,18c0.3,0,0.5,0.2,0.5,0.5s-0.2,0.5-0.5,0.5s-0.5-0.2-0.5-0.5S262.2,18,262.5,18 M262.5,17
									c-0.8,0-1.5,0.7-1.5,1.5s0.7,1.5,1.5,1.5s1.5-0.7,1.5-1.5S263.3,17,262.5,17L262.5,17z"/>
							</g>
							<g opacity="0.5">
								<g>
									<path fill="#9EA3A5" d="M262.5,17c0.8,0,1.5,0.7,1.5,1.5s-0.7,1.5-1.5,1.5s-1.5-0.7-1.5-1.5S261.7,17,262.5,17 M262.5,16
										c-1.4,0-2.5,1.1-2.5,2.5s1.1,2.5,2.5,2.5s2.5-1.1,2.5-2.5S263.9,16,262.5,16L262.5,16z"/>
								</g>
							</g>
							<g opacity="0.25">
								<g>
									<path fill="#9EA3A5" d="M272,27L272,27c0,1.1-0.9,2-2,2h-15c-1.1,0-2-0.9-2-2v0c0-1.1,0.9-2,2-2h15
										C271.1,25,272,25.9,272,27z"/>
								</g>
							</g>
							<g>
								<path fill="#9EA3A5" d="M270,26c0.6,0,1,0.4,1,1s-0.4,1-1,1h-15c-0.6,0-1-0.4-1-1s0.4-1,1-1H270 M270,25h-15
									c-1.1,0-2,0.9-2,2s0.9,2,2,2h15c1.1,0,2-0.9,2-2S271.1,25,270,25L270,25z"/>
							</g>
							<g>
								<rect x="305" y="25" fill="#FFFFFF" width="2" height="2"/>
							</g>
							<g>
								<rect x="218" y="25" fill="#FFFFFF" width="2" height="2"/>
							</g>
						</g>
						<g>
							<rect x="290" y="41" fill="#9EA3A5" width="1" height="5"/>
						</g>
						<g>
							<g>
								<path fill="#9EA3A5" d="M296,41v3h-3v-3H296 M297,40h-5v5h5V40L297,40z"/>
							</g>
						</g>
						<g>
							<polygon fill="#9EA3A5" points="234,43 231,43 231,40 228,44 231,44 231,47 							"/>
						</g>
						<g>
							<rect x="290" y="46" fill="#9EA3A5" width="6" height="1"/>
						</g>
					</g>
					<g opacity="0.5">
						<rect x="254" y="26" fill="#9EA3A5" width="17" height="1"/>
					</g>
					<g opacity="0.5">
						
							<rect x="230.5" y="39.1" transform="matrix(0.7684 0.6399 -0.6399 0.7684 81.3322 -137.7534)" fill="#9EA3A5" width="1" height="8.8"/>
					</g>
				</g>
				<g>
					<g>
						<path fill="#FFFFFF" d="M292.5,136H283v-3h9.5c0.3,0,0.5-0.2,0.5-0.5V123h3v9.5C296,134.4,294.4,136,292.5,136z"/>
					</g>
				</g>
				<g>
					<g>
						<g>
							<path fill="#50B8E7" d="M297,54v82.5h-69V54H297 M298,53h-1h-69h-1v1v82.5v1h1h69h1v-1V54V53L298,53z"/>
						</g>
						<g>
							<path fill="#50B8E7" d="M239.5,60c-0.2-0.2-0.4-0.3-0.6-0.4c-0.3-0.1-0.5-0.1-0.7-0.1c-0.1,0-0.3,0-0.4,0
								c-0.1,0-0.3,0.1-0.4,0.1c-0.1,0.1-0.2,0.2-0.3,0.3c-0.1,0.1-0.1,0.2-0.1,0.4c0,0.3,0.1,0.5,0.3,0.6c0.2,0.1,0.4,0.3,0.7,0.3
								s0.6,0.2,0.9,0.3s0.6,0.2,0.9,0.4s0.5,0.4,0.7,0.7c0.2,0.3,0.3,0.7,0.3,1.2c0,0.5-0.1,0.9-0.3,1.2c-0.2,0.4-0.4,0.6-0.7,0.9
								c-0.3,0.2-0.6,0.4-1,0.5c-0.4,0.1-0.8,0.2-1.3,0.2c-0.6,0-1.1-0.1-1.5-0.3s-0.9-0.4-1.3-0.8l1.3-1.5c0.2,0.3,0.4,0.5,0.7,0.6
								s0.6,0.2,0.9,0.2c0.2,0,0.3,0,0.5-0.1c0.2,0,0.3-0.1,0.4-0.2s0.2-0.2,0.3-0.3c0.1-0.1,0.1-0.2,0.1-0.4c0-0.3-0.1-0.5-0.3-0.6
								c-0.2-0.1-0.4-0.3-0.7-0.4c-0.3-0.1-0.6-0.2-1-0.3c-0.3-0.1-0.7-0.2-1-0.4c-0.3-0.2-0.5-0.4-0.7-0.7s-0.3-0.7-0.3-1.1
								c0-0.5,0.1-0.9,0.3-1.2c0.2-0.3,0.4-0.6,0.7-0.9s0.6-0.4,1-0.5c0.4-0.1,0.8-0.2,1.2-0.2c0.5,0,0.9,0.1,1.4,0.2
								s0.9,0.4,1.2,0.7L239.5,60z"/>
							<path fill="#50B8E7" d="M247.7,60.1c-0.2-0.2-0.4-0.4-0.7-0.5c-0.3-0.1-0.6-0.2-0.9-0.2c-0.4,0-0.7,0.1-1,0.2
								c-0.3,0.1-0.6,0.3-0.8,0.6c-0.2,0.2-0.4,0.5-0.5,0.9s-0.2,0.7-0.2,1.1c0,0.4,0.1,0.8,0.2,1.1s0.3,0.6,0.5,0.9
								c0.2,0.2,0.5,0.4,0.8,0.6s0.6,0.2,0.9,0.2c0.4,0,0.7-0.1,1-0.2c0.3-0.2,0.5-0.4,0.7-0.7l1.6,1.2c-0.4,0.5-0.8,0.9-1.4,1.1
								c-0.6,0.2-1.1,0.4-1.7,0.4c-0.7,0-1.3-0.1-1.8-0.3c-0.6-0.2-1-0.5-1.5-0.9c-0.4-0.4-0.7-0.9-1-1.4c-0.2-0.6-0.3-1.2-0.3-1.8
								c0-0.7,0.1-1.3,0.3-1.8s0.5-1,1-1.4c0.4-0.4,0.9-0.7,1.5-0.9c0.6-0.2,1.2-0.3,1.8-0.3c0.2,0,0.5,0,0.8,0.1s0.5,0.1,0.8,0.2
								c0.3,0.1,0.5,0.2,0.7,0.4c0.2,0.2,0.4,0.4,0.6,0.6L247.7,60.1z"/>
							<path fill="#50B8E7" d="M253.2,57.9h1.5l3.7,8.5h-2.1l-0.7-1.8h-3.3l-0.7,1.8h-2.1L253.2,57.9z M253.9,60.3l-1,2.6h2.1
								L253.9,60.3z"/>
							<path fill="#50B8E7" d="M259.3,57.9h2.5l3.6,5.9h0v-5.9h1.9v8.5h-2.4l-3.7-6h0v6h-1.9V57.9z"/>
							<path fill="#50B8E7" d="M272.6,57.9h2.8l2,5.5h0l2-5.5h2.8v8.5h-1.9v-6.5h0l-2.2,6.5h-1.4l-2.1-6.5h0v6.5h-1.9V57.9z"/>
							<path fill="#50B8E7" d="M284,57.9h5.8v1.7h-3.9v1.6h3.7v1.7h-3.7v1.7h4.1v1.7h-6V57.9z"/>
						</g>
						<g>
							<g>
								<g>
									<g>
										<path fill="#50B8E7" d="M291,88h-15V73h15V88z M279,85h9v-9h-9V85z"/>
									</g>
								</g>
								<g>
									<rect x="281" y="78" fill="#FD9838" width="5" height="5"/>
								</g>
								<g>
									<rect x="267" y="73" fill="#50B8E7" width="6" height="3"/>
								</g>
								<g>
									<rect x="264" y="79" fill="#50B8E7" width="6" height="3"/>
								</g>
								<g>
									<rect x="267" y="85" fill="#50B8E7" width="6" height="3"/>
								</g>
								<g>
									<rect x="276" y="94" fill="#50B8E7" width="3" height="3"/>
								</g>
								<g>
									<rect x="276" y="100" fill="#50B8E7" width="3" height="12"/>
								</g>
								<g>
									<rect x="279" y="94" fill="#50B8E7" width="3" height="3"/>
								</g>
								<g>
									<rect x="279" y="100" fill="#50B8E7" width="3" height="3"/>
								</g>
								<g>
									<rect x="282" y="106" fill="#50B8E7" width="6" height="3"/>
								</g>
								<g>
									<rect x="285" y="103" fill="#50B8E7" width="6" height="3"/>
								</g>
								<g>
									<rect x="288" y="97" fill="#50B8E7" width="3" height="3"/>
								</g>
								<g>
									<rect x="285" y="94" fill="#50B8E7" width="6" height="3"/>
								</g>
								<g>
									<rect x="279" y="91" fill="#50B8E7" width="9" height="3"/>
								</g>
								<g>
									<rect x="234" y="91" fill="#50B8E7" width="6" height="3"/>
								</g>
								<g>
									<rect x="240" y="94" fill="#50B8E7" width="3" height="5"/>
								</g>
								<g>
									<rect x="243" y="91" fill="#50B8E7" width="5" height="3"/>
								</g>
								<g>
									<rect x="246" y="94" fill="#50B8E7" width="3" height="6"/>
								</g>
								<g>
									<rect x="288" y="124" fill="#50B8E7" width="3" height="3"/>
								</g>
								<g>
									<rect x="270" y="121" fill="#50B8E7" width="3" height="3"/>
								</g>
								<g>
									<rect x="279" y="112" fill="#50B8E7" width="3" height="3"/>
								</g>
								<g>
									<rect x="285" y="112" fill="#50B8E7" width="6" height="3"/>
								</g>
								<g>
									<rect x="267" y="127" fill="#50B8E7" width="6" height="3"/>
								</g>
								<g>
									<rect x="261" y="124" fill="#50B8E7" width="3" height="3"/>
								</g>
								<g>
									<rect x="255" y="127" fill="#50B8E7" width="3" height="3"/>
								</g>
								<g>
									<rect x="252" y="115" fill="#50B8E7" width="3" height="6"/>
								</g>
								<g>
									<rect x="252" y="124" fill="#50B8E7" width="3" height="6"/>
								</g>
								<g>
									<rect x="258" y="115" fill="#50B8E7" width="3" height="9"/>
								</g>
								<g>
									<rect x="267" y="115" fill="#50B8E7" width="6" height="3"/>
								</g>
								<g>
									<rect x="261" y="121" fill="#50B8E7" width="6" height="3"/>
								</g>
								<g>
									<rect x="255" y="115" fill="#50B8E7" width="9" height="3"/>
								</g>
								<g>
									<rect x="267" y="118" fill="#50B8E7" width="3" height="3"/>
								</g>
								<g>
									<rect x="273" y="118" fill="#50B8E7" width="3" height="3"/>
								</g>
								<g>
									<rect x="288" y="118" fill="#50B8E7" width="3" height="3"/>
								</g>
								<g>
									<rect x="285" y="115" fill="#50B8E7" width="3" height="15"/>
								</g>
								<g>
									<rect x="279" y="121" fill="#50B8E7" width="3" height="3"/>
								</g>
								<g>
									<rect x="273" y="115" fill="#50B8E7" width="3" height="15"/>
								</g>
								<g>
									<rect x="276" y="115" fill="#50B8E7" width="12" height="3"/>
								</g>
								<g>
									<rect x="276" y="127" fill="#50B8E7" width="12" height="3"/>
								</g>
								<g>
									<rect x="243" y="109" fill="#50B8E7" width="6" height="3"/>
								</g>
								<g>
									<rect x="246" y="106" fill="#50B8E7" width="3" height="3"/>
								</g>
								<g>
									<rect x="246" y="103" fill="#50B8E7" width="3" height="3"/>
								</g>
								<g>
									<rect x="237" y="109" fill="#50B8E7" width="3" height="3"/>
								</g>
								<g>
									<rect x="234" y="106" fill="#50B8E7" width="3" height="6"/>
								</g>
								<g>
									<rect x="237" y="97" fill="#50B8E7" width="3" height="6"/>
								</g>
								<g>
									<rect x="234" y="100" fill="#50B8E7" width="3" height="3"/>
								</g>
								<g>
									<rect x="243" y="97" fill="#50B8E7" width="3" height="9"/>
								</g>
								<g>
									<rect x="270" y="82" fill="#50B8E7" width="3" height="3"/>
								</g>
								<g>
									<rect x="255" y="80" fill="#50B8E7" width="3" height="8"/>
								</g>
								<g>
									<rect x="261" y="76" fill="#50B8E7" width="3" height="9"/>
								</g>
								<g>
									<rect x="252" y="73" fill="#50B8E7" width="3" height="7"/>
								</g>
								<g>
									<rect x="258" y="73" fill="#50B8E7" width="6" height="3"/>
								</g>
								<g>
									<rect x="252" y="79" fill="#50B8E7" width="6" height="3"/>
								</g>
								<g>
									<rect x="252" y="85" fill="#50B8E7" width="9" height="3"/>
								</g>
								<g>
									<g>
										<path fill="#50B8E7" d="M249,130h-15v-15h15V130z M237,127h9v-9h-9V127z"/>
									</g>
								</g>
								<g>
									<rect x="239" y="120" fill="#FD9838" width="5" height="5"/>
								</g>
								<g>
									<g>
										<path fill="#50B8E7" d="M249,88h-15V73h15V88z M237,85h9v-9h-9V85z"/>
									</g>
								</g>
								<g>
									<g>
										<g>
											<path fill="#FFFFFF" d="M267,110.5h-9c-2.5,0-4.5-2-4.5-4.5v-9c0-2.5,2-4.5,4.5-4.5h9c2.5,0,4.5,2,4.5,4.5v9
												C271.5,108.5,269.5,110.5,267,110.5z"/>
										</g>
										<g>
											<path fill="#FD9838" d="M267,112h-9c-3.3,0-6-2.7-6-6v-9c0-3.3,2.7-6,6-6h9c3.3,0,6,2.7,6,6v9
												C273,109.3,270.3,112,267,112z M258,94c-1.7,0-3,1.3-3,3v9c0,1.7,1.3,3,3,3h9c1.7,0,3-1.3,3-3v-9c0-1.7-1.3-3-3-3H258z"
												/>
										</g>
									</g>
									<g>
										<path fill="#FD9838" d="M260.2,100.8h-3v-1.5c0-0.8,0.7-1.5,1.5-1.5l0,0c0.8,0,1.5,0.7,1.5,1.5V100.8z"/>
									</g>
									<g>
										<path fill="#FD9838" d="M259.5,103h6v0.8c0,1.7-1.3,3-3,3l0,0c-1.7,0-3-1.3-3-3V103z"/>
									</g>
									<g>
										<path fill="#FD9838" d="M267.8,100.8h-3v-1.5c0-0.8,0.7-1.5,1.5-1.5l0,0c0.8,0,1.5,0.7,1.5,1.5V100.8z"/>
									</g>
									<g opacity="0.5">
										<path fill="#FD9838" d="M265.5,109h5.2V94h-5.2l0,0c1.7,0,3,1.3,3,3v9C268.5,107.7,267.2,109,265.5,109L265.5,109z"/>
									</g>
								</g>
								<g>
									<rect x="239" y="78" fill="#FD9838" width="5" height="5"/>
								</g>
							</g>
						</g>
					</g>
				</g>
				<g>
					<g>
						<g>
							<path fill="#FD9838" d="M292.5,135H283v-3h9.5c0.3,0,0.5-0.2,0.5-0.5V122h3v9.5C296,133.4,294.4,135,292.5,135z"/>
						</g>
						<g>
							<path fill="#FD9838" d="M296,80h-3v-8.5c0-0.3-0.2-0.5-0.5-0.5H284v-3h8.5c1.9,0,3.5,1.6,3.5,3.5V80z"/>
						</g>
					</g>
					<g>
						<g>
							<path fill="#FD9838" d="M232,81h-3v-9.5c0-1.9,1.6-3.5,3.5-3.5h9.5v3h-9.5c-0.3,0-0.5,0.2-0.5,0.5V81z"/>
						</g>
						<g>
							<path fill="#FD9838" d="M242,135h-9.5c-1.9,0-3.5-1.6-3.5-3.5V122h3v9.5c0,0.3,0.2,0.5,0.5,0.5h9.5V135z"/>
						</g>
					</g>
				</g>
				<g>
					<g>
						<path fill="#FFFFFF" d="M318.1,139.5c-12.9-0.6-32.4-6.7-32.4-6.7c-4.2-1.5-7.8,1.5-11.9,3.1c-4.1,1.6-16.2,6.2-16.2,6.2
							c-4.3,1.8-8.1,5.1-8.1,10.6l0,0c0,9.1,6.1,11.2,17.5,11.2c6.6,0,12-5.1,14.4-5.1c2.2,0,3.5,1.1,7.3,3.8l9.8,7.2
							c6.1,4.5,8,14.1,8,22.3v0c0,4.4,1.1,8.8,3.1,12.6l8.3,14.5"/>
					</g>
				</g>
				<g>
					<path fill="#9EA3A5" d="M287.9,156.7c0,0-0.2,0-0.4,0c-0.3,0-0.6,0.1-1,0.2c-0.8,0.2-1.9,0.6-3,1.1c-1.1,0.5-2.1,1.1-2.9,1.6
						c-0.8,0.5-1.3,0.8-1.3,0.8c-0.5,0.3-1.1,0.1-1.4-0.4c-0.3-0.5-0.1-1.1,0.4-1.4c0,0,0.1,0,0.1,0c0,0,0.6-0.3,1.4-0.6
						c0.8-0.4,1.9-0.9,3.1-1.3c1.2-0.4,2.4-0.8,3.3-0.9c0.5-0.1,0.9-0.1,1.2-0.1c0.3,0,0.4,0,0.4,0c0.3,0,0.5,0.2,0.5,0.5
						C288.4,156.5,288.2,156.7,287.9,156.7z"/>
				</g>
				<g opacity="0.25">
					<path fill="#9EA3A5" d="M252.2,159c-1,0-2-0.3-2.9-0.9c-0.5-0.3-0.6-0.9-0.2-1.4c0.3-0.5,0.9-0.6,1.4-0.2
						c0.8,0.6,1.9,0.7,2.8,0.4l11.1-4c1.8-0.6,2.8-2.3,2.6-4l-0.7-5.7c0-0.1-0.1-0.1-0.1-0.1c-0.1-0.1-0.2-0.1-0.3,0l-12.1,3.2
						c-0.5,0.1-1.1-0.2-1.2-0.7c-0.1-0.5,0.2-1.1,0.7-1.2l12.1-3.2c0.7-0.2,1.4-0.1,1.9,0.3c0.5,0.4,0.9,0.9,1,1.5l0.7,5.7
						c0.3,2.6-1.3,5.1-3.9,6.1l-11.1,4C253.4,158.9,252.8,159,252.2,159z"/>
				</g>
				<g>
					<path fill="#9EA3A5" d="M252.7,158c-0.9,0-1.8-0.3-2.6-0.8l-0.9-0.6c-0.2-0.2-0.3-0.5-0.1-0.7s0.5-0.3,0.7-0.1l0.9,0.6
						c0.9,0.7,2.2,0.8,3.3,0.4l11.1-4c2-0.7,3.2-2.5,3-4.5l-0.7-5.7c0-0.2-0.1-0.4-0.3-0.5c-0.2-0.1-0.5-0.2-0.7-0.1l-12.1,3.2
						c-0.3,0.1-0.5-0.1-0.6-0.4c-0.1-0.3,0.1-0.5,0.4-0.6l12.1-3.2c0.5-0.1,1.1,0,1.5,0.3c0.4,0.3,0.7,0.7,0.7,1.2l0.7,5.7
						c0.3,2.4-1.2,4.7-3.6,5.5l-11.1,4C253.8,157.9,253.2,158,252.7,158z"/>
				</g>
				<g>
					<g>
						<g>
							<path fill="#9EA3A5" d="M333.6,145.3c-1.6-1-3.3-1.9-5.1-2.7c-1.8-0.7-3.6-1.2-5.6-1.5l-1.4-0.2l-1.5-0.1l-0.8,0l-0.8-0.1
								c-0.5-0.1-1-0.1-1.6-0.2c-2-0.3-4-0.7-6-1.1c-7.9-1.8-15.7-3.9-23.5-6.1L286,133c-0.2-0.1-0.5-0.2-0.7-0.2
								c-0.2,0-0.4-0.1-0.6-0.1c-0.8-0.1-1.7,0-2.5,0.3c-1.7,0.6-3.4,1.7-5.2,2.7c-0.9,0.5-1.9,1-2.9,1.4l-2.8,1.1l-5.7,2.1
								l-5.7,2.1l-1.4,0.5l-0.1,0c0.1,0,0,0,0,0l0,0l-0.2,0.1l-0.3,0.2c-0.2,0.1-0.4,0.2-0.7,0.3c-0.9,0.4-1.7,0.9-2.5,1.4
								c-1.6,1.1-3,2.4-3.8,4c-0.4,0.8-0.7,1.7-0.8,2.5c-0.1,0.5-0.1,0.9-0.1,1.4c0,0.5,0,1,0.1,1.5c0.1,1.9,0.6,3.7,1.8,5.1
								c1.1,1.4,2.8,2.2,4.6,2.7c1.8,0.5,3.8,0.7,5.8,0.8c1,0.1,2,0.1,3,0.1c0.5,0,1,0,1.5,0c0.4,0,0.9-0.1,1.4-0.1
								c1.9-0.3,3.7-0.9,5.5-1.7c1.8-0.8,3.5-1.8,5.5-2.6c0.5-0.2,1-0.4,1.8-0.5c0.1,0,0.2,0,0.3,0l0.2,0c0.1,0,0.3,0,0.4,0
								c0.3,0,0.6,0.1,0.9,0.2c1.1,0.3,2.1,0.8,3,1.3c1.8,1.1,3.4,2.3,5.1,3.5l9.8,7.1c1.8,1.2,3.2,3,4.2,4.9c1,1.9,1.5,4,1.8,6.1
								c0.6,4.1,0.4,8.3,0.5,12.2c0.1,3.9,1,7.8,2.7,11.3l0-0.1l5.1,7.8l5.1,7.9c0.1,0.2,0.1,0.5-0.1,0.7c-0.2,0.1-0.5,0.1-0.7-0.1
								l-5.4-7.6l-5.4-7.7l0-0.1l0,0c-2-3.7-3-7.8-3.2-12c-0.1-4.1,0.1-8.1-0.6-12c-0.3-1.9-0.8-3.8-1.6-5.5c-0.8-1.7-2-3.1-3.6-4.2
								l-9.8-7.1c-1.6-1.2-3.3-2.4-4.9-3.4c-0.8-0.5-1.7-0.9-2.5-1.1c-0.2,0-0.4-0.1-0.6-0.1c-0.1,0-0.2,0-0.3,0l-0.2,0l-0.1,0
								c-0.3,0-0.7,0.2-1.1,0.3c-1.7,0.7-3.5,1.8-5.4,2.6c-1.9,0.8-3.9,1.6-6,1.9c-0.5,0.1-1.1,0.1-1.6,0.2c-0.5,0-1.1,0-1.6,0
								c-1,0-2,0-3.1-0.1c-2.1-0.1-4.1-0.3-6.2-0.9c-2-0.6-4.2-1.6-5.6-3.4c-1.5-1.8-2-4.1-2.2-6.2c0-0.6-0.1-1.1-0.1-1.6
								c0-0.5,0-1.1,0.1-1.7c0.1-1.1,0.5-2.2,1-3.2c1-2,2.7-3.5,4.4-4.7c0.9-0.6,1.8-1.1,2.8-1.6c0.2-0.1,0.5-0.2,0.7-0.3l0.3-0.2
								l0.2-0.1l0.1-0.1l0.1,0l1.4-0.5l5.7-2.1l5.7-2.1l2.8-1.1c0.9-0.3,1.7-0.8,2.6-1.3c1.7-1,3.4-2.1,5.5-2.8
								c1.1-0.3,2.2-0.5,3.4-0.4c0.3,0,0.6,0.1,0.9,0.2l0.7,0.2l1.4,0.4c7.7,2.2,15.5,4.4,23.4,6.1c2,0.4,3.9,0.8,5.9,1.1
								c0.5,0.1,1,0.1,1.5,0.2l0.7,0.1l0.7,0l1.6,0c0.5,0,1,0.1,1.6,0.1c2.1,0.2,4.2,0.7,6.1,1.6c1.9,0.9,3.8,2.1,5,3.9
								c0.2,0.2,0.1,0.5-0.1,0.7C334.1,145.5,333.8,145.5,333.6,145.3L333.6,145.3z"/>
						</g>
					</g>
				</g>
				<g>
					<path fill="#9EA3A5" d="M323.5,194c0,0-0.4,0-1.2,0c-0.4,0-0.9,0-1.4-0.1c-0.6,0-1.2-0.1-1.8-0.3c-0.3,0-0.7-0.1-1-0.2
						c-0.4-0.1-0.7-0.2-1.1-0.3c-0.4-0.1-0.7-0.3-1.1-0.5c-0.4-0.2-0.7-0.4-1.1-0.6c-0.7-0.5-1.5-1-2.1-1.6c-0.4-0.3-0.7-0.6-1-0.9
						c-0.3-0.3-0.6-0.6-0.9-1c-0.6-0.7-1.1-1.4-1.7-2.1c-0.5-0.7-1-1.4-1.4-2.1c-0.9-1.4-1.7-2.8-2.3-3.9c-0.6-1.2-1.2-2.1-1.5-2.8
						c-0.4-0.7-0.6-1.1-0.6-1.1c-0.3-0.5-0.1-1.1,0.4-1.3s1.1-0.1,1.3,0.4c0,0,0,0,0,0l0,0c0,0,0.2,0.4,0.5,1.1
						c0.3,0.7,0.8,1.7,1.4,2.8c0.6,1.2,1.3,2.5,2.1,3.9c0.4,0.7,0.9,1.4,1.3,2.1c0.5,0.7,1,1.4,1.5,2c0.3,0.3,0.5,0.7,0.8,1
						c0.3,0.3,0.6,0.6,0.9,0.9c0.6,0.6,1.3,1,1.9,1.5c0.3,0.2,0.7,0.4,1,0.6c0.3,0.2,0.7,0.3,1,0.4c0.3,0.2,0.7,0.2,1,0.3
						c0.3,0.1,0.6,0.2,0.9,0.3c0.6,0.1,1.2,0.3,1.7,0.3c0.5,0.1,1,0.1,1.3,0.1c0.8,0,1.2,0.1,1.2,0.1c0.3,0,0.5,0.2,0.5,0.5
						C324,193.8,323.8,194,323.5,194z"/>
				</g>
				<g>
					<path fill="#9EA3A5" d="M320.5,188c-2.2,0-11.9-2.2-16.5-12.3c-0.1-0.3,0-0.6,0.3-0.7c0.3-0.1,0.6,0,0.7,0.3
						c4.3,9.6,13.5,11.7,15.5,11.7c0.3,0,0.5,0.2,0.5,0.5S320.8,188,320.5,188z"/>
				</g>
			</g>
			<g>
				<g opacity="0.25">
					<path fill="#9EA3A5" d="M216.6,82.6v-1.2c0,1.2-2.1,3.1-3.6,7.2c0,0-2.9,11.2-7,15.3c-3.8,3.8-10.6,5-10.6,5l10.5,0
						c2.2-0.2,4.4,0,6.6,0.4l4.2,0.9"/>
				</g>
				<g opacity="0.25">
					<path fill="#9EA3A5" d="M216.6,82.6v-1.2c0,1.2-2.1,3.1-3.6,7.2c0,0,4.2,11.5-2.6,17.8c-3.9,3.6-4.6,2.5-4.6,2.5
						c2.2-0.2,4.4,0,6.6,0.4l4.2,0.9"/>
				</g>
				<g>
					<path fill="#9EA3A5" d="M216,82l-6.9-2.2c-9-3.9-17.2-8.5-17.2-15.4v-0.6c0-3.9,2.5-7.4,6.6-9.3l0.3-0.2
						c2.9-1.3,6.2-1.6,9.4-0.9l8.1,1.8h0.5v2h-0.6c-0.1,0-0.1,0-0.2,0l-8.3-1.8c-2.7-0.6-5.6-0.3-8.1,0.8l-0.3,0.2
						c-3.3,1.5-5.4,4.4-5.4,7.4v0.6c0,5.8,7.6,9.9,15.9,13.5l6.8,2.2L216,82z"/>
				</g>
				<g>
					<path fill="#9EA3A5" d="M196.3,111c-2.2,0-4.3-0.9-6.1-2.5c-2.1-1.9-3.2-4.6-3.2-7.4c0-1.5,0.4-3.2,1-4.4l1.6-3
						c1.7-3.3,4.5-5.9,7.8-7.3l4-1.8c0.4-0.2,0.8-0.4,1.2-0.7l3-2.3c1.4-1.1,3.1-1.6,4.8-1.6h6.7v2h-6.7c-1.3,0-2.5,0.4-3.6,1.2
						l-3,2.3c-0.5,0.4-1.1,0.7-1.6,1l-4,1.8c-2.9,1.3-5.3,3.6-6.8,6.4l-1.6,3c-0.5,0.9-0.8,2.3-0.8,3.5c0,2.2,0.9,4.4,2.6,5.9
						c1.5,1.4,3.3,2.1,5.2,1.9l10-1c2-0.2,4.4-0.3,6.4,0.1l4,1l-0.5,1.9l-4-1c-1.7-0.4-3.9-0.2-5.8,0l-0.9,0.1l-9.1,1
						C196.7,111,196.5,111,196.3,111z"/>
				</g>
				<g>
					<path fill="#FFFFFF" d="M216.6,134.7l-6.3,4.2h-2.2c-2.3,0-4.4,1.1-5.7,3l-0.2,0.3c-0.8,1.2-1.2,2.6-1.2,4v3.8
						c0,1.6,0.6,3.2,1.6,4.4l1.4,1.6c1.3,1.6,3.2,2.5,5.3,2.5h0c1.5,0,2.9-0.5,4.1-1.4l0.1-0.1c2.6-2,4.3-4.9,4.8-8.1l0.1-0.4
						c0.1-0.8,0.1-3.4,0-4.2l-1.8-9.4"/>
				</g>
				<g opacity="0.25">
					<path fill="#9EA3A5" d="M220,139c0-4.1,2-7.5,2-12c0-3.4-1.2-6.3-2-8c-2.9-6.1-2.8-8.1-2.8-8.1v10l1.2,4.4v3.7l-1.2,3.8
						l-3.8,4.4l-7.5,2.5h3.8c3.7,0,5.3,3,5.3,6.3c0,4.7-2.8,10-11,10c0.9,0.4,4,1.5,4,1.5l4.2-0.9l4.8,3.4c2.6-2.5,4-4.9,4-11
						C221,145.5,220,143.1,220,139z"/>
				</g>
				<g>
					<path fill="#FFFFFF" d="M217.5,123c-0.2-0.7-0.4-2.3-0.5-3v-3v-7h-2.1c-3.7,0-7.3,1.3-10.1,3.7l-0.2,0.2
						c-2.5,2.1-4.4,5-5.3,8.2l-3.3,12c-0.2,0.5,0,1,0,1c2,2.7,6.7,4,10,4h1c2,0,3.7-0.6,5.4-1.7l0.6-0.4c2.7-1.8,4.5-4.6,4.9-7.8v0
						C218.3,126.9,218.1,125,217.5,123z"/>
					<path fill="#9EA3A5" d="M207,140h-1c-3.7,0-8.6-1.5-10.8-4.4c-0.1-0.1-0.1-0.2-0.2-0.3c0-0.1-0.2-0.8,0-1.6l3.3-12
						c1-3.4,2.9-6.4,5.6-8.7l0.2-0.2c3-2.5,6.8-3.9,10.8-3.9h2.1c0.6,0,1,0.4,1,1v10c0.1,0.7,0.3,2.1,0.5,2.7
						c0.7,2.1,0.8,4.1,0.5,6.4c0,0,0,0,0,0c-0.4,3.4-2.4,6.6-5.4,8.5l-0.6,0.4C211,139.4,209.1,140,207,140z M196.9,134.6
						c1.9,2.2,6,3.4,9.1,3.4h1c1.7,0,3.2-0.5,4.9-1.6l0.6-0.4c2.5-1.6,4.1-4.3,4.5-7.1c0,0,0,0,0,0c0.2-2,0.1-3.7-0.5-5.5
						c-0.3-0.9-0.5-2.6-0.5-3.2l0-9.1h-1.1c-3.4,0-6.8,1.2-9.5,3.4l-0.2,0.2c-2.4,2-4.1,4.6-5,7.7l-3.3,12
						C196.9,134.4,196.9,134.5,196.9,134.6z"/>
				</g>
				<g opacity="0.25">
					<path fill="#9EA3A5" d="M217.5,122.1l-0.9-3.6L216,111l-1,2c-1.3,3.2-1.3,6.6-1,10c0.1,1.1,0.1,2.9,0,4l0,0
						c-0.4,3.2-2.1,5.7-4.7,7.4l-0.6,0.4c-1.7,1.1-3.6,1.7-5.6,1.7h-1.7c-0.9,0-2.5-0.3-3.4-0.6c1.9,1.8,5.1,3.1,7.7,3.1h1.7
						c2,0,3.9-0.6,5.6-1.7l0.6-0.4c2.6-1.7,4.3-4.6,4.7-7.8l0,0C218.6,126.8,218.4,124.3,217.5,122.1z"/>
				</g>
				<g>
					<path fill="#9EA3A5" d="M208.6,159c-2.1,0-5.2-0.9-6.9-2.8c-2.5-2.3-2.7-5.3-2.7-9.2c0-1.5,0.5-4.2,1.5-5.6
						c0-0.1,2.1-3.4,6.5-3.4c0.6,0,1,0.4,1,1s-0.4,1-1,1c-3.2,0-4.8,2.4-4.9,2.6c-0.7,0.9-1.1,3.1-1.1,4.4c0,3.6,0.1,6,2.1,7.8
						c1.1,1.3,3.4,2.2,5.4,2.2c1.3,0,2.6-0.4,3.7-1.2l0.1-0.1c2.4-1.7,4.6-3.7,4.6-7.1c0-2.9-0.3-5.6-0.5-8.1
						c-0.2-2.5-0.5-4.9-0.5-7.5c0-0.6,0.4-1,1-1s1,0.4,1,1c0,2.5,0.2,4.8,0.5,7.3c0.3,2.6,0.5,5.3,0.5,8.3c0,4.3-2.9,6.9-5.4,8.7
						l-0.1,0.1C212,158.5,210.3,159,208.6,159z"/>
				</g>
				<g>
					<rect x="211.1" y="157.9" transform="matrix(0.8 0.6 -0.6 0.8 138.325 -96.725)" fill="#9EA3A5" width="6.2" height="2.5"/>
				</g>
				<g>
					<path fill="#9EA3A5" d="M213,88.3c0,0,0.1,0.4,0.4,1c0.1,0.3,0.3,0.7,0.4,1.1c0.1,0.5,0.3,1,0.4,1.6c0.1,0.6,0.2,1.2,0.3,1.9
						c0,0.7,0.2,1.4,0.2,2.1c0,0.4,0,0.7,0,1.1c0,0.4-0.1,0.8-0.1,1.1c0,0.8-0.2,1.6-0.3,2.3c-0.2,0.8-0.4,1.5-0.7,2.3
						c-0.2,0.8-0.6,1.4-0.9,2.1c-0.4,0.6-0.8,1.3-1.2,1.8c-0.4,0.6-0.9,1-1.4,1.4c-0.5,0.4-1,0.7-1.5,1c-0.5,0.2-0.9,0.4-1.3,0.5
						c-0.8,0.2-1.2,0.3-1.2,0.3c-0.5,0.1-1.1-0.2-1.2-0.8c-0.1-0.5,0.2-1.1,0.8-1.2c0,0,0,0,0,0l0.2,0c0,0,0.3-0.1,0.9-0.2
						c0.3,0,0.6-0.2,1-0.3c0.4-0.2,0.7-0.4,1.2-0.7c0.4-0.3,0.8-0.7,1.2-1.1c0.4-0.4,0.7-1,1.1-1.5c0.3-0.6,0.7-1.2,0.9-1.9
						c0.3-0.6,0.5-1.4,0.7-2c0.1-0.7,0.3-1.4,0.4-2.1c0-0.4,0.1-0.7,0.1-1.1c0-0.4,0-0.7,0-1c0.1-0.7,0-1.4-0.1-2
						c0-0.6-0.2-1.2-0.2-1.8c-0.1-0.5-0.2-1-0.3-1.5c-0.1-0.4-0.2-0.8-0.3-1.1c-0.2-0.6-0.3-1-0.3-1c-0.1-0.3,0-0.5,0.3-0.6
						C212.6,87.9,212.9,88.1,213,88.3z"/>
				</g>
				<g opacity="0.25">
					<path fill="#9EA3A5" d="M196,136c-0.2,0-0.4-0.1-0.6-0.2c-0.5-0.3-0.6-0.9-0.3-1.4c0.2-0.3,4.5-6.5,8.8-8.7l-0.2-1.5
						c0,0,0-0.1,0-0.1c-2,1.3-4.4,3.2-5,4.6c-0.2,0.5-0.8,0.7-1.3,0.5c-0.5-0.2-0.7-0.8-0.5-1.3c1.1-2.7,5.3-5.3,6.1-5.8
						c0.5-0.3,1-0.3,1.5-0.1c0.7,0.3,1.1,1.2,1.2,1.8l0.3,1.8c0.1,0.7-0.3,1.4-0.9,1.7c-3.9,1.8-8.2,8.1-8.2,8.1
						C196.6,135.8,196.3,136,196,136z"/>
				</g>
				<g>
					<path fill="#9EA3A5" d="M196.5,134c-0.1,0-0.2,0-0.3-0.1c-0.2-0.2-0.3-0.5-0.1-0.7c0.2-0.3,4.6-6.7,8.9-8.7
						c0,0,0.1-0.1,0.1-0.1l-0.3-1.8c-0.1-0.3-0.2-0.6-0.4-0.7c-2.3,1.3-4.9,3.4-5.6,5.1c-0.1,0.3-0.4,0.4-0.7,0.3
						c-0.3-0.1-0.4-0.4-0.3-0.7c0.8-2,3.7-4.2,5.9-5.5c0.3-0.2,0.7-0.2,1-0.1c0.6,0.3,0.9,0.9,0.9,1.5l0.3,1.8
						c0.1,0.5-0.2,0.9-0.6,1.1c-4,1.8-8.4,8.2-8.4,8.3C196.8,133.9,196.7,134,196.5,134z"/>
				</g>
				<g opacity="0.25">
					<path fill="#9EA3A5" d="M201.2,154L201.2,154c-1.2,0-1.2-1-1.2-3.8c0-3.2,5.1-8.2,7.7-8.2c1.5,0,2.1,1,2.3,1.8
						c0.2,1-0.3,1.9-1.1,2.1c-2.1,0.7-6.1,5.3-6.7,7.3C202,153.8,201.5,154,201.2,154z M207.7,144c-1.3,0-4.7,3.1-5.5,5.3
						c1.7-2.2,4.1-4.5,5.8-5.2c0,0,0,0,0,0C208,144,207.9,144,207.7,144z"/>
				</g>
				<g>
					<path fill="#9EA3A5" d="M200.7,153c-0.5,0-0.7-0.1-0.7-3.3c0-2.9,4.8-7.7,7.2-7.7c1.2,0,1.7,0.7,1.8,1.4
						c0.1,0.7-0.2,1.4-0.8,1.6c-2.2,0.7-6.4,5.5-7,7.6C201.1,153,200.8,153,200.7,153z M207.2,143c-1.9,0-6.2,4.3-6.2,6.7
						c0,0.3,0,0.6,0,1c1.6-2.6,4.8-6,6.9-6.6c0,0,0.2-0.2,0.1-0.5C207.9,143.2,207.6,143,207.2,143z"/>
				</g>
			</g>
		</g>
	</g>
</g>
<g opacity="0.25">
	<path fill="#9EA3A5" d="M289.2,160l10,8.8l3,3.4l-18.8-13.1h-1.9l0.3-0.9l4.1-1.6h2h0.6C287.8,157.6,288.2,159.2,289.2,160z"/>
</g>
</svg>
